
<svg width="160px" height="151px" viewBox="0 0 160 151" version="1.1" xmlns="http://www.w3.org/2000/svg" xmlns:xlink="http://www.w3.org/1999/xlink">
    <!-- Generator: Sketch 49.1 (51147) - http://www.bohemiancoding.com/sketch -->
    <desc>Created with Sketch.</desc>
    <defs></defs>
    <g id="Page-1" stroke="none" stroke-width="1" fill="none" fill-rule="evenodd">
        <g id="Desktop" transform="translate(-498.000000, -555.000000)" fill="#000000" fill-rule="nonzero">
            <g id="653791" transform="translate(498.000000, 555.000000)">
                <path d="M157.906875,75.7549016 C157.0025,74.413377 155.4725,72.2233934 153.3175,69.4082787 C149.757812,64.7573279 143.955625,57.7126885 136.527188,50.5649508 C128.270313,42.6195246 119.822188,36.2741475 111.417188,31.7054262 C100.790625,25.9284918 90.2203125,23 80,23 C56.9209375,23 36.5234375,37.9193607 23.4759375,50.435377 C15.9971875,57.6092787 10.2140625,64.6374098 6.679375,69.2699836 C4.4853125,72.1458361 2.9678125,74.3411148 2.0809375,75.6764098 C0.1615625,78.5669016 0,79.1007705 0,80 C0,80.9387869 0.1803125,81.4075574 2.093125,84.2450984 C2.9975,85.586623 4.5275,87.7762951 6.6825,90.5914098 C10.2421875,95.2423607 16.044375,102.287 23.4728125,109.434738 C31.7296875,117.380164 40.1778125,123.725541 48.5828125,128.294262 C59.209375,134.070885 69.7796875,137 80,137 C103.079063,137 123.476562,122.080639 136.524063,109.564934 C144.002813,102.391033 149.785937,95.3629016 153.320625,90.7303279 C155.514688,87.8544754 157.032188,85.6591967 157.919062,84.3239016 C159.829375,81.4464918 160,80.8814754 160,80 C160,79.0612131 159.819687,78.5924426 157.906875,75.7549016 Z M28.8546875,105.944967 C17.1990625,94.9498852 9.230625,83.7937705 6.7359375,79.9629344 C9.1340625,76.2099672 17.03,65.0308033 28.9365625,53.8544426 C29.335,53.4803607 29.74125,53.1040984 30.1540625,52.7256557 C25.676875,60.8227705 23.125,70.1190656 23.125,80 C23.125,89.7800164 25.6228125,98.9890984 30.0159375,107.027656 C29.6225,106.664787 29.2353125,106.303787 28.8546875,105.944967 Z M80,130.459016 C52.0853125,130.459016 29.375,107.823164 29.375,80 C29.375,52.1768361 52.0853125,29.5409836 80,29.5409836 C107.914687,29.5409836 130.625,52.1768361 130.625,80 C130.625,107.823164 107.914687,130.459016 80,130.459016 Z M131.063125,106.145557 C130.664687,106.519639 130.258437,106.895902 129.845625,107.274033 C134.323125,99.1772295 136.875,89.88 136.875,80 C136.875,70.2199836 134.377187,61.0109016 129.984062,52.9723443 C130.377813,53.3352131 130.765,53.6962131 131.145312,54.0550328 C142.800937,65.0501148 150.769375,76.206541 153.264375,80.0370656 C150.86625,83.7897213 142.970625,94.9682623 131.063125,106.145557 Z" id="Shape"></path>
                <path d="M94.9748,89.9433561 C93.6894902,88.7854167 91.6949896,88.8736288 90.519732,90.1390379 C87.7766236,93.0935227 83.8740244,94.7878788 79.8121805,94.7878788 C71.8139965,94.7878788 65.3067214,88.3782121 65.3067214,80.5 C65.3067214,72.6217879 71.8139965,66.2121212 79.8121805,66.2121212 C81.5534663,66.2121212 82.9655412,64.8215379 82.9655412,63.1060606 C82.9655412,61.3905833 81.5534663,60 79.8121805,60 C68.336155,60 59,69.1961136 59,80.5 C59,91.8038864 68.336155,101 79.8121805,101 C85.6395911,101 91.2386983,98.5695076 95.1734617,94.3315985 C96.3490346,93.0655682 96.2597945,91.1009848 94.9748,89.9433561 Z" id="Shape"></path>
                <path d="M97.0000787,77 C95.3435222,77 94.0001575,78.3238382 94.0001575,79.956976 L94.0001575,80.0134542 C93.9833579,81.6462964 95.312923,82.9834409 96.9694795,83 C96.9796793,83 96.989879,83 97.0003787,83 C98.6431356,83 99.9829004,81.6956779 99.9994,80.0728895 L100,79.956976 C100,78.3238382 98.6566353,77 97.0000787,77 Z" id="Shape"></path>
                <path d="M121.675553,96.5676015 C121.209365,94.8238668 120.275423,93.2875324 118.983767,92.092466 C120.159424,88.2357609 120.756345,84.2291618 120.756345,80.1474586 C120.756345,70.427292 117.292073,61.009113 111.002148,53.6278576 C105.312278,46.9511352 97.6300595,42.2921675 89.1697127,40.3372614 C88.2182137,36.1418022 84.4695897,33 80.0002092,33 C75.5292611,33 71.7796966,36.1440019 70.8297651,40.3413465 C63.5811296,42.008406 56.9639007,45.6143452 51.576253,50.870689 C50.3353855,52.0811533 50.3084237,54.0706261 51.5163729,55.3144002 C52.13085,55.9472857 52.9465997,56.2649855 53.76329,56.2649855 C54.551451,56.2649855 55.3402389,55.9689685 55.9496999,55.3744206 C60.3463465,51.085317 65.7067188,48.0915233 71.5793645,46.618666 C73.121514,49.7186739 76.316168,51.8542698 80.0005227,51.8542698 C83.6836233,51.8542698 86.8773368,49.7199309 88.4201133,46.6214942 C103.675762,50.4301202 114.48617,64.1160343 114.48617,80.148087 C114.48617,83.3741064 114.042242,86.542305 113.17539,89.602404 C109.727421,89.3928038 106.286976,91.0978867 104.445112,94.2946814 C102.604816,97.4899049 102.850607,101.326499 104.752978,104.214078 C98.2708714,110.916883 89.3910499,114.714824 79.9998957,114.714824 C70.6046658,114.714824 61.728293,110.918454 55.2464998,104.214707 C57.1491844,101.326813 57.3952887,97.4899049 55.5546789,94.2943672 C53.7131286,91.0975725 50.2723702,89.3924896 46.8244011,89.6020897 C45.9575495,86.5419907 45.5139346,83.3737921 45.5139346,80.148087 C45.5139346,78.1391311 45.6869914,76.12609 46.0284024,74.1642706 C46.3256087,72.454474 45.1841234,70.8266949 43.4783224,70.5287925 C41.7728348,70.2324613 40.1488596,71.3750491 39.8513398,73.0848456 C39.4484811,75.402074 39.2437599,77.7786943 39.2437599,80.1484013 C39.2437599,84.2297902 39.8406805,88.2367036 41.0163383,92.0934088 C39.7246823,93.2884751 38.7907397,94.8248095 38.3245522,96.5685443 C37.6743351,99.0007856 38.0079084,101.541441 39.2641379,103.722288 C41.0044249,106.743106 44.1721172,108.434048 47.4253974,108.433734 C48.3518157,108.433734 49.2848177,108.29201 50.1943065,108.009192 C57.8972162,116.293582 68.6261122,121 79.9995822,121 C91.368036,121 102.102575,116.293267 109.805798,108.009506 C110.714974,108.29201 111.647349,108.433734 112.573767,108.433734 C115.826734,108.433734 118.994739,106.742792 120.735026,103.721973 C121.991883,101.540498 122.32577,98.9998429 121.675553,96.5676015 Z M80.0002092,45.5700369 C78.271522,45.5700369 76.8651218,44.1603425 76.8651218,42.4276063 C76.8651218,40.69487 78.271522,39.2851756 80.0002092,39.2851756 C81.7288964,39.2851756 83.1352965,40.69487 83.1352965,42.4276063 C83.1352965,44.1600283 81.7288964,45.5700369 80.0002092,45.5700369 Z M48.9775791,101.729672 C47.4796344,102.595412 45.5593934,102.079111 44.6947363,100.579229 C44.2762021,99.8523843 44.1649065,99.0054993 44.381541,98.1947521 C44.5981756,97.384005 45.117346,96.706497 45.8424918,96.2866682 C46.335014,96.0016498 46.872995,95.866211 47.4047058,95.866211 C48.488819,95.866211 49.5447164,96.4299631 50.1250211,97.4367979 C50.9893647,98.9376228 50.4745833,100.863304 48.9775791,101.729672 Z M115.305682,100.579229 C114.441338,102.080053 112.51953,102.596355 111.022839,101.729672 C109.525835,100.863304 109.011054,98.9376228 109.875397,97.4371121 C110.740054,95.9366015 112.661863,95.4206143 114.157927,96.2869825 C114.883072,96.706497 115.402243,97.3843193 115.618877,98.1950664 C115.835512,99.0054993 115.724216,99.8523843 115.305682,100.579229 Z" id="Shape"></path>
                <path d="M48.4887676,59.3905129 C47.0544307,58.5760786 45.2305135,59.0767872 44.4146055,60.5088317 L44.3781571,60.5741415 L44.3739744,60.5812988 C43.5741994,62.0213952 44.1000134,63.8283001 45.5430143,64.6272271 C45.9998152,64.8801162 46.4948571,65 46.9830275,65 C48.0376431,65 49.062084,64.441437 49.6091098,63.4570183 C50.4244203,62.0255702 49.9231044,60.2049472 48.4887676,59.3905129 Z" id="Shape"></path>
                <path d="M157.021483,9 L154.978517,9 C153.33378,9 152,10.3431 152,12 C152,13.6569 153.333482,15 154.978517,15 L157.021483,15 C158.66622,15 160,13.6569 160,12 C160,10.3434 158.66622,9 157.021483,9 Z" id="Shape"></path>
                <path d="M141.021483,9 L138.978517,9 C137.33378,9 136,10.3431 136,12 C136,13.6569 137.33378,15 138.978517,15 L141.021483,15 C142.66622,15 144,13.6569 144,12 C144,10.3434 142.66622,9 141.021483,9 Z" id="Shape"></path>
                <path d="M148,15 C146.3434,15 145,16.3334823 145,17.9785174 L145,20.0214826 C145,21.6665177 146.3431,23 148,23 C149.6566,23 151,21.6665177 151,20.0214826 L151,17.9785174 C151,16.3334823 149.6566,15 148,15 Z" id="Shape"></path>
                <path d="M148,0 C146.3434,0 145,1.33348226 145,2.97851744 L145,5.02148256 C145,6.66651774 146.3431,8 148,8 C149.6566,8 151,6.66651774 151,5.02148256 L151,2.97851744 C151,1.33378011 149.6566,0 148,0 Z" id="Shape"></path>
                <path d="M29.0214826,137 L26.9785174,137 C25.3337801,137 24,138.3431 24,140 C24,141.6569 25.3337801,143 26.9785174,143 L29.0214826,143 C30.6662199,143 32,141.6569 32,140 C32,138.3431 30.6665177,137 29.0214826,137 Z" id="Shape"></path>
                <path d="M14.0214826,137 L11.9785174,137 C10.3337801,137 9,138.3431 9,140 C9,141.6569 10.3337801,143 11.9785174,143 L14.0214826,143 C15.6662199,143 17,141.6569 17,140 C17,138.3431 15.6662199,137 14.0214826,137 Z" id="Shape"></path>
                <path d="M20,143 C18.3434,143 17,144.333482 17,145.978517 L17,148.021483 C17,149.666518 18.3434,151 20,151 C21.6566,151 23,149.666518 23,148.021483 L23,145.978517 C23,144.333482 21.6566,143 20,143 Z" id="Shape"></path>
                <path d="M20,128 C18.3434,128 17,129.333482 17,130.978517 L17,133.021483 C17,134.666518 18.3434,136 20,136 C21.6566,136 23,134.666518 23,133.021483 L23,130.978517 C23,129.33378 21.6566,128 20,128 Z" id="Shape"></path>
            </g>
        </g>
    </g>
</svg>