
<svg width="38px" height="33px" viewBox="0 0 38 33" version="1.1" xmlns="http://www.w3.org/2000/svg" xmlns:xlink="http://www.w3.org/1999/xlink">
    <!-- Generator: Sketch 49.1 (51147) - http://www.bohemiancoding.com/sketch -->
    <desc>Created with Sketch.</desc>
    <defs></defs>
    <g id="Page-1" stroke="none" stroke-width="1" fill="none" fill-rule="evenodd">
        <g id="Desktop" transform="translate(-34.000000, -34.000000)" fill="#FFFFFF" fill-rule="nonzero">
            <g id="logo2" transform="translate(34.000000, 32.000000)">
                <path d="M4.39079928,22.9918601 C1.9658278,22.9918601 2.98150853e-16,20.9792413 0,18.4965502 C-2.98150853e-16,16.0138591 1.9658278,14.0012402 4.39079928,14.0012402 C6.81577076,14.0012402 8.78159855,16.0138591 8.78159855,18.4965502 C8.78159855,20.9792413 6.81577076,22.9918601 4.39079928,22.9918601 Z M27.1235919,2 C23.8472768,2 23.7130016,4.74942503 18.7582464,4.74942503 C13.8034913,4.74942503 13.3872382,2 10.3794735,2 C7.95450204,2 5.98867424,4.01261881 5.98867424,6.49530992 C5.98867424,8.97800104 7.95450204,10.9906198 10.3794735,10.9906198 C13.6557886,10.9906198 13.7900638,8.24119481 18.7582464,8.24119481 C23.7264291,8.24119481 24.1292547,10.9906198 27.1235919,10.9906198 C29.5485633,10.9906198 31.5143911,8.97800104 31.5143911,6.49530992 C31.5143911,4.01261881 29.5485633,2 27.1235919,2 Z M27.1235919,26.0162276 C23.8472768,26.0162276 23.7130016,28.7656527 18.7582464,28.7656527 C13.8034913,28.7656527 13.3872382,26.0162276 10.3794735,26.0162276 C8.75529486,25.9241669 7.21449286,26.7589543 6.37532855,28.1856238 C5.53616425,29.6122933 5.53616425,31.3970347 6.37532855,32.8237042 C7.21449286,34.2503736 8.75529486,35.0851611 10.3794735,34.9931003 C13.6557886,34.9931003 13.7900638,32.2436753 18.7582464,32.2436753 C23.7264291,32.2436753 24.1292547,34.9931003 27.1235919,34.9931003 C28.7477705,35.0851611 30.2885725,34.2503736 31.1277368,32.8237042 C31.9669011,31.3970347 31.9669011,29.6122933 31.1277368,28.1856238 C30.2885725,26.7589543 28.7477705,25.9241669 27.1235919,26.0162276 Z M33.6225119,14.0424816 C30.3327693,14.0424816 30.453617,16.9843664 26.3045131,16.9843664 C22.4776697,16.9843664 22.4239596,14.0562287 18.7582464,14.0562287 C16.4188004,14.1597581 14.579076,16.1404856 14.595715,18.5377915 C14.6175793,21.0111513 16.5706573,23.0107168 18.9865143,23.0331015 C22.2628294,23.0331015 22.1419817,20.0912167 26.3045131,20.0912167 C30.1313565,20.0912167 30.1850666,23.0331015 33.8507797,23.0331015 C36.1849334,22.9224108 38.0168101,20.9437497 37.9998836,18.5515387 C37.9926317,16.0750406 36.0413447,14.0650526 33.6225119,14.0424816 Z" id="Shape"></path>
            </g>
        </g>
    </g>
</svg>